<?xml version="1.0"?>
<svg xmlns="http://www.w3.org/2000/svg" xmlns:xlink="http://www.w3.org/1999/xlink" version="1.1" id="Layer_1" x="0px" y="0px" viewBox="0 0 512 512" style="enable-background:new 0 0 512 512;" xml:space="preserve" width="512px" height="512px" class=""><g><path style="fill: #c79847;" d="M363.924,468.209H148.076c-14.808,0-26.813-12.005-26.813-26.813V70.602  c0-14.808,12.005-26.813,26.813-26.813h215.848c14.808,0,26.813,12.005,26.813,26.813v370.795  C390.737,456.204,378.732,468.209,363.924,468.209z" data-original="#9AD14B" class=""/><rect x="149.341" y="71.86" style="fill:#F7B239;fill: #9AD14B;" width="213.332" height="368.276" data-original="#F7B239" class=""/><g>
	<circle style="fill:#2197D8;" cx="191.279" cy="125.479" r="14.309" data-original="#2197D8" class=""/>
	<circle style="fill:#2197D8;" cx="318.724" cy="125.479" r="14.309" data-original="#2197D8" class=""/>
	<circle style="fill:#2197D8;" cx="191.279" cy="299.511" r="14.309" data-original="#2197D8" class=""/>
	<circle style="fill:#2197D8;" cx="255.002" cy="299.511" r="14.309" data-original="#2197D8" class=""/>
	<circle style="fill:#2197D8;" cx="318.724" cy="299.511" r="14.309" data-original="#2197D8" class=""/>
</g><g>
	<circle style="fill:#F95428;" cx="191.279" cy="386.522" r="14.309" data-original="#F95428"/>
	<circle style="fill:#F95428;" cx="318.724" cy="386.522" r="14.309" data-original="#F95428"/>
	<circle style="fill:#F95428;" cx="191.279" cy="212.49" r="14.309" data-original="#F95428"/>
	<circle style="fill:#F95428;" cx="255.002" cy="212.49" r="14.309" data-original="#F95428"/>
	<circle style="fill:#F95428;" cx="318.724" cy="212.49" r="14.309" data-original="#F95428"/>
</g><g>
	<path style="fill: none;" d="M56.422,107.788H26.105c-9.767,0-17.684,7.917-17.684,17.684l0,0   c0,9.767,7.917,17.684,17.684,17.684h30.316c9.767,0,17.684-7.917,17.684-17.684l0,0C74.105,115.707,66.188,107.788,56.422,107.788   z" data-original="#2197D8" class=""/>
	<path style="fill: #F95428;" d="M56.422,194.807H26.105c-9.767,0-17.684,7.917-17.684,17.684l0,0   c0,9.767,7.917,17.684,17.684,17.684h30.316c9.767,0,17.684-7.917,17.684-17.684l0,0C74.105,202.724,66.188,194.807,56.422,194.807   z" data-original="#2197D8" class=""/>
	<path style="fill: none;" d="M56.422,281.824H26.105c-9.767,0-17.684,7.917-17.684,17.684l0,0   c0,9.767,7.917,17.684,17.684,17.684h30.316c9.767,0,17.684-7.917,17.684-17.684l0,0C74.105,289.741,66.188,281.824,56.422,281.824   z" data-original="#2197D8" class=""/>
	<path style="fill: #F95428;" d="M56.422,368.841H26.105c-9.767,0-17.684,7.917-17.684,17.684l0,0   c0,9.767,7.917,17.684,17.684,17.684h30.316c9.767,0,17.684-7.917,17.684-17.684l0,0C74.105,376.759,66.188,368.841,56.422,368.841   z" data-original="#2197D8" class=""/>
	<path style="fill:#2197D8;" d="M455.578,107.788h30.316c9.767,0,17.684,7.917,17.684,17.684l0,0   c0,9.767-7.917,17.684-17.684,17.684h-30.316c-9.767,0-17.684-7.917-17.684-17.684l0,0   C437.895,115.707,445.812,107.788,455.578,107.788z" data-original="#2197D8" class=""/>
</g><path style="fill: none;" d="M455.578,194.807h30.316c9.767,0,17.684,7.917,17.684,17.684l0,0c0,9.767-7.917,17.684-17.684,17.684  h-30.316c-9.767,0-17.684-7.917-17.684-17.684l0,0C437.895,202.724,445.812,194.807,455.578,194.807z" data-original="#F95428"/><g>
	<path style="fill:#2197D8;" d="M455.578,281.824h30.316c9.767,0,17.684,7.917,17.684,17.684l0,0   c0,9.767-7.917,17.684-17.684,17.684h-30.316c-9.767,0-17.684-7.917-17.684-17.684l0,0   C437.895,289.741,445.812,281.824,455.578,281.824z" data-original="#2197D8" class=""/>
</g><path style="fill: none;" d="M455.578,368.841h30.316c9.767,0,17.684,7.917,17.684,17.684l0,0c0,9.767-7.917,17.684-17.684,17.684  h-30.316c-9.767,0-17.684-7.917-17.684-17.684l0,0C437.895,376.759,445.812,368.841,455.578,368.841z" data-original="#F95428"/><path style="fill:#2197D8;" d="M270.654,99.101h-29.31c-6.014,0-10.891-4.875-10.891-10.891V71.86h51.09v16.35  C281.545,94.225,276.67,99.101,270.654,99.101z" data-original="#2197D8" class=""/><path style="fill:#F95428;" d="M241.346,412.898h29.31c6.014,0,10.891,4.875,10.891,10.891v16.35h-51.09v-16.35  C230.455,417.773,235.33,412.898,241.346,412.898z" data-original="#F95428"/><g>
	<path style="fill:#0E0E0E" d="M399.158,220.912h31.716c3.512,10.274,13.255,17.685,24.704,17.685h30.316   c14.394,0,26.105-11.711,26.105-26.107c0-14.394-11.711-26.105-26.105-26.105h-30.316c-11.448,0-21.192,7.411-24.704,17.684   h-31.717v-70.174h31.717c3.512,10.273,13.255,17.684,24.704,17.684h30.316c14.394,0,26.105-11.711,26.105-26.105   s-11.711-26.105-26.105-26.105h-30.316c-11.448,0-21.192,7.411-24.704,17.684h-31.717V70.602c0-19.428-15.807-35.233-35.234-35.233   H148.075c-19.428,0-35.234,15.805-35.234,35.233v46.451H81.126c-3.512-10.273-13.255-17.684-24.704-17.684H26.105   C11.711,99.368,0,111.078,0,125.474s11.711,26.105,26.105,26.105h30.316c11.448,0,21.192-7.411,24.704-17.684h31.717v70.174H81.126   c-3.512-10.273-13.255-17.684-24.704-17.684H26.105C11.711,186.385,0,198.096,0,212.491s11.711,26.107,26.105,26.107h30.316   c11.448,0,21.192-7.411,24.704-17.685h31.716v70.174H81.126c-3.512-10.273-13.255-17.684-24.704-17.684H26.105   C11.711,273.403,0,285.113,0,299.508s11.711,26.107,26.105,26.107h30.316c11.448,0,21.192-7.411,24.704-17.685h31.716v70.174   H81.126c-3.512-10.273-13.255-17.684-24.704-17.684H26.105C11.711,360.42,0,372.131,0,386.525   c0,14.395,11.711,26.107,26.105,26.107h30.316c11.448,0,21.192-7.411,24.704-17.685h31.716v46.451   c0,19.428,15.807,35.234,35.234,35.234h215.848c19.428,0,35.234-15.806,35.234-35.234v-46.451h31.716   c3.512,10.274,13.255,17.685,24.704,17.685h30.316c14.394,0,26.105-11.711,26.105-26.107c0-14.394-11.711-26.105-26.105-26.105   h-30.316c-11.448,0-21.192,7.411-24.704,17.684h-31.717V307.93h31.716c3.512,10.274,13.255,17.685,24.704,17.685h30.316   c14.394,0,26.105-11.711,26.105-26.107c0-14.394-11.711-26.105-26.105-26.105h-30.315c-11.448,0-21.192,7.411-24.704,17.684   h-31.717v-70.174H399.158z M455.578,203.228h30.316c5.107,0,9.262,4.156,9.262,9.262c0,5.108-4.156,9.264-9.262,9.264h-30.316   c-5.107,0-9.262-4.156-9.262-9.264C446.316,207.383,450.472,203.228,455.578,203.228z M455.578,116.211h30.316   c5.107,0,9.262,4.156,9.262,9.262s-4.156,9.262-9.262,9.262h-30.316c-5.107,0-9.262-4.156-9.262-9.262   S450.472,116.211,455.578,116.211z M56.422,134.736H26.105c-5.107,0-9.262-4.156-9.262-9.262s4.156-9.262,9.262-9.262h30.316   c5.107,0,9.262,4.156,9.262,9.262S61.528,134.736,56.422,134.736z M56.422,221.753H26.105c-5.107,0-9.262-4.156-9.262-9.264   c0-5.107,4.156-9.262,9.262-9.262h30.316c5.107,0,9.262,4.156,9.262,9.262C65.684,217.599,61.528,221.753,56.422,221.753z    M56.422,308.771H26.105c-5.107,0-9.262-4.156-9.262-9.264c0-5.107,4.156-9.262,9.262-9.262h30.316   c5.107,0,9.262,4.156,9.262,9.262C65.684,304.616,61.528,308.771,56.422,308.771z M56.422,395.788H26.105   c-5.107,0-9.262-4.156-9.262-9.264c0-5.107,4.156-9.262,9.262-9.262h30.316c5.107,0,9.262,4.156,9.262,9.262   C65.684,391.633,61.528,395.788,56.422,395.788z M382.315,441.397c0,10.141-8.251,18.391-18.391,18.391H148.076   c-10.141,0-18.391-8.251-18.391-18.391V70.602c0-10.141,8.251-18.39,18.391-18.39h215.848c10.141,0,18.391,8.25,18.391,18.39   V441.397z M455.578,377.263h30.316c5.107,0,9.262,4.156,9.262,9.262c0,5.108-4.156,9.264-9.262,9.264h-30.316   c-5.107,0-9.262-4.156-9.262-9.264C446.316,381.419,450.472,377.263,455.578,377.263z M455.578,290.246h30.316   c5.107,0,9.262,4.156,9.262,9.262c0,5.108-4.156,9.264-9.262,9.264h-30.316c-5.107,0-9.262-4.156-9.262-9.264   C446.316,294.4,450.472,290.246,455.578,290.246z" data-original="#333333" class="active-path" data-old_color="#111111"/>
	<path style="fill:#0E0E0E" d="M362.665,63.439h-213.33c-4.651,0-8.421,3.771-8.421,8.421v368.277c0,4.651,3.771,8.421,8.421,8.421   h213.33c4.651,0,8.421-3.771,8.421-8.421V71.86C371.087,67.209,367.316,63.439,362.665,63.439z M273.124,80.282v7.929   c0,1.361-1.107,2.469-2.469,2.469h-29.31c-1.361,0-2.469-1.107-2.469-2.469v-7.929H273.124z M222.033,80.282v7.929   c0,10.648,8.663,19.312,19.312,19.312h29.31c10.648,0,19.312-8.663,19.312-19.312v-7.929h64.277v36.774h-14.429   c-3.354-8.374-11.537-14.313-21.096-14.313c-9.559,0-17.742,5.938-21.096,14.313h-85.252c-3.354-8.374-11.537-14.313-21.096-14.313   c-9.559,0-17.742,5.938-21.096,14.313h-12.422V80.282H222.033z M339.815,378.107c-3.354-8.374-11.537-14.313-21.096-14.313   c-9.559,0-17.742,5.938-21.096,14.313H212.37c-3.354-8.374-11.537-14.313-21.096-14.313c-9.559,0-17.742,5.938-21.096,14.313   h-12.422v-70.182h12.421c3.354,8.375,11.537,14.314,21.096,14.314c9.559,0,17.742-5.939,21.096-14.314h21.53   c3.354,8.375,11.537,14.314,21.096,14.314c9.559,0,17.742-5.939,21.096-14.314h21.53c3.354,8.374,11.537,14.312,21.096,14.312   c9.558,0,17.741-5.938,21.095-14.312h14.429v70.182H339.815z M324.607,386.525c0,3.247-2.641,5.888-5.887,5.888   c-3.247,0-5.888-2.641-5.888-5.888c0-3.246,2.641-5.887,5.888-5.887C321.966,380.638,324.607,383.279,324.607,386.525z    M197.162,386.525c0,3.247-2.641,5.888-5.887,5.888c-3.247,0-5.888-2.641-5.888-5.888c0-3.246,2.641-5.887,5.888-5.887   C194.521,380.638,197.162,383.279,197.162,386.525z M170.177,220.909c3.354,8.375,11.537,14.314,21.096,14.314   c9.559,0,17.742-5.939,21.096-14.314h21.53c3.354,8.375,11.537,14.314,21.096,14.314s17.742-5.939,21.096-14.314h21.53   c3.354,8.374,11.537,14.313,21.096,14.313c9.558,0,17.741-5.938,21.095-14.313h14.429v70.174h-14.431   c-3.356-8.371-11.537-14.306-21.093-14.306c-9.557,0-17.738,5.935-21.094,14.306h-21.536c-3.356-8.371-11.537-14.304-21.093-14.304   s-17.737,5.934-21.093,14.304h-21.536c-3.356-8.371-11.537-14.304-21.093-14.304c-9.556,0-17.737,5.934-21.093,14.304h-12.424   v-70.174H170.177z M185.387,212.492c0-3.246,2.641-5.887,5.888-5.887c3.246,0,5.887,2.641,5.887,5.887   c0,3.247-2.641,5.888-5.887,5.888C188.028,218.38,185.387,215.739,185.387,212.492z M249.109,212.492   c0-3.246,2.641-5.887,5.888-5.887c3.246,0,5.887,2.641,5.887,5.887c0,3.247-2.641,5.888-5.887,5.888   C251.75,218.38,249.109,215.739,249.109,212.492z M312.831,212.491c0-3.246,2.641-5.887,5.888-5.887   c3.246,0,5.887,2.641,5.887,5.887c0,3.247-2.641,5.888-5.887,5.888C315.472,218.378,312.831,215.737,312.831,212.491z    M324.607,299.507c0,3.246-2.641,5.887-5.887,5.887c-3.247,0-5.888-2.641-5.888-5.887c0-3.247,2.641-5.888,5.888-5.888   C321.966,293.62,324.607,296.261,324.607,299.507z M260.884,299.509c0,3.246-2.641,5.887-5.887,5.887   c-3.247,0-5.888-2.641-5.888-5.887c0-3.247,2.641-5.888,5.888-5.888C258.243,293.621,260.884,296.262,260.884,299.509z    M197.162,299.509c0,3.246-2.641,5.887-5.887,5.887c-3.247,0-5.888-2.641-5.888-5.887c0-3.247,2.641-5.888,5.888-5.888   C194.521,293.621,197.162,296.262,197.162,299.509z M354.244,204.066h-14.431c-3.356-8.371-11.537-14.305-21.093-14.305   c-9.556,0-17.738,5.934-21.094,14.305h-21.536c-3.356-8.37-11.537-14.304-21.093-14.304c-9.556,0-17.737,5.934-21.093,14.304   h-21.536c-3.356-8.37-11.537-14.304-21.093-14.304c-9.556,0-17.737,5.934-21.093,14.304h-12.424v-70.168h12.424   c3.356,8.371,11.537,14.305,21.094,14.305c9.556,0,17.737-5.934,21.093-14.305h85.258c3.356,8.371,11.537,14.305,21.094,14.305   c9.556,0,17.737-5.934,21.093-14.305h14.432v70.168H354.244z M185.387,125.474c0-3.246,2.641-5.887,5.888-5.887   c3.246,0,5.887,2.641,5.887,5.887c0,3.247-2.641,5.888-5.887,5.888C188.028,131.361,185.387,128.72,185.387,125.474z    M312.831,125.474c0-3.246,2.641-5.887,5.888-5.887c3.246,0,5.887,2.641,5.887,5.887c0,3.247-2.641,5.888-5.887,5.888   C315.472,131.361,312.831,128.72,312.831,125.474z M238.876,431.716v-7.929c0-1.361,1.107-2.469,2.469-2.469h29.31   c1.361,0,2.469,1.107,2.469,2.469v7.929H238.876z M289.967,431.716v-7.929c0-10.648-8.663-19.312-19.312-19.312h-29.31   c-10.648,0-19.312,8.663-19.312,19.312v7.929h-64.277V394.95h12.424c3.356,8.371,11.537,14.305,21.094,14.305   c9.556,0,17.737-5.934,21.093-14.305h85.258c3.356,8.371,11.537,14.305,21.094,14.305c9.556,0,17.737-5.934,21.093-14.305h14.432   v36.766H289.967z" data-original="#333333" class="active-path" data-old_color="#111111"/>
</g></g> </svg>
