<?xml version="1.0" encoding="utf-8"?>
<!-- Generator: Adobe Illustrator 22.1.0, SVG Export Plug-In . SVG Version: 6.00 Build 0)  -->
<svg version="1.1" id="Layer_1" xmlns="http://www.w3.org/2000/svg" xmlns:xlink="http://www.w3.org/1999/xlink" x="0px" y="0px"
	 viewBox="0 0 512 512" style="enable-background:new 0 0 512 512;" xml:space="preserve">
<style type="text/css">
	.st0{fill:#C79847;}
	.st1{fill:#9AD14B;}
	.st2{fill:#2197D8;}
	.st3{fill:#F95428;}
	.st4{fill:#0E0E0E;}
</style>
<g>
	<path class="st0" d="M363.9,468.2H148.1c-14.8,0-26.8-12-26.8-26.8V70.6c0-14.8,12-26.8,26.8-26.8h215.8c14.8,0,26.8,12,26.8,26.8
		v370.8C390.7,456.2,378.7,468.2,363.9,468.2z"/>
	<rect x="149.3" y="71.9" class="st1" width="213.3" height="368.3"/>
	<g>
		<circle class="st2" cx="191.3" cy="125.5" r="14.3"/>
		<circle class="st2" cx="318.7" cy="125.5" r="14.3"/>
		<circle class="st2" cx="191.3" cy="299.5" r="14.3"/>
		<circle class="st2" cx="255" cy="299.5" r="14.3"/>
		<circle class="st2" cx="318.7" cy="299.5" r="14.3"/>
	</g>
	<g>
		<circle class="st3" cx="191.3" cy="386.5" r="14.3"/>
		<circle class="st3" cx="318.7" cy="386.5" r="14.3"/>
		<circle class="st3" cx="191.3" cy="212.5" r="14.3"/>
		<circle class="st3" cx="255" cy="212.5" r="14.3"/>
		<circle class="st3" cx="318.7" cy="212.5" r="14.3"/>
	</g>
	<g>
		<path class="st3" d="M56.4,194.8H26.1c-9.8,0-17.7,7.9-17.7,17.7l0,0c0,9.8,7.9,17.7,17.7,17.7h30.3c9.8,0,17.7-7.9,17.7-17.7l0,0
			C74.1,202.7,66.2,194.8,56.4,194.8z"/>
		<path class="st3" d="M56.4,368.8H26.1c-9.8,0-17.7,7.9-17.7,17.7l0,0c0,9.8,7.9,17.7,17.7,17.7h30.3c9.8,0,17.7-7.9,17.7-17.7l0,0
			C74.1,376.8,66.2,368.8,56.4,368.8z"/>
		<path class="st2" d="M455.6,107.8h30.3c9.8,0,17.7,7.9,17.7,17.7l0,0c0,9.8-7.9,17.7-17.7,17.7h-30.3c-9.8,0-17.7-7.9-17.7-17.7
			l0,0C437.9,115.7,445.8,107.8,455.6,107.8z"/>
	</g>
	<g>
		<path class="st2" d="M455.6,281.8h30.3c9.8,0,17.7,7.9,17.7,17.7l0,0c0,9.8-7.9,17.7-17.7,17.7h-30.3c-9.8,0-17.7-7.9-17.7-17.7
			l0,0C437.9,289.7,445.8,281.8,455.6,281.8z"/>
	</g>
	<path class="st2" d="M270.7,99.1h-29.3c-6,0-10.9-4.9-10.9-10.9V71.9h51.1v16.3C281.5,94.2,276.7,99.1,270.7,99.1z"/>
	<path class="st3" d="M241.3,412.9h29.3c6,0,10.9,4.9,10.9,10.9v16.4h-51.1v-16.4C230.5,417.8,235.3,412.9,241.3,412.9z"/>
	<g>
		<path class="st4" d="M485.9,273.4h-30.3c-11.5,0-21.2,7.4-24.7,17.7h-31.7V133.9h31.7c3.5,10.3,13.3,17.7,24.7,17.7h30.3
			c14.4,0,26.1-11.7,26.1-26.1c0-14.4-11.7-26.1-26.1-26.1h-30.3c-11.5,0-21.2,7.4-24.7,17.7h-31.7V70.6c0-19.4-15.8-35.2-35.2-35.2
			H148.1c-19.4,0-35.2,15.8-35.2,35.2v133.5H81.1c-3.5-10.3-13.3-17.7-24.7-17.7H26.1C11.7,186.4,0,198.1,0,212.5
			c0,14.4,11.7,26.1,26.1,26.1h30.3c11.5,0,21.2-7.4,24.7-17.7h31.7v157.2H81.1c-3.5-10.3-13.3-17.7-24.7-17.7H26.1
			C11.7,360.4,0,372.1,0,386.5c0,14.4,11.7,26.1,26.1,26.1h30.3c11.5,0,21.2-7.4,24.7-17.7h31.7v46.5c0,19.4,15.8,35.2,35.2,35.2
			h215.8c19.4,0,35.2-15.8,35.2-35.2V307.9h31.7c3.5,10.3,13.3,17.7,24.7,17.7h30.3c14.4,0,26.1-11.7,26.1-26.1
			C512,285.1,500.3,273.4,485.9,273.4z M495.2,125.5c0,5.1-4.2,9.3-9.3,9.3h-30.3c-5.1,0-9.3-4.2-9.3-9.3c0-5.1,4.1-9.3,9.3-9.3
			h30.3C491,116.2,495.2,120.4,495.2,125.5z M16.8,212.5c0-5.1,4.2-9.3,9.3-9.3h30.3c5.1,0,9.3,4.2,9.3,9.3s-4.1,9.3-9.3,9.3H26.1
			C21,221.8,16.8,217.6,16.8,212.5z M16.8,386.5c0-5.1,4.2-9.3,9.3-9.3h30.3c5.1,0,9.3,4.2,9.3,9.3c0,5.1-4.1,9.3-9.3,9.3H26.1
			C21,395.8,16.8,391.6,16.8,386.5z M382.3,441.4c0,10.1-8.3,18.4-18.4,18.4H148.1c-10.2,0-18.4-8.3-18.4-18.4V70.6
			c0-10.1,8.3-18.4,18.4-18.4h215.8c10.2,0,18.4,8.3,18.4,18.4V441.4z M446.3,299.5c0-5.1,4.1-9.3,9.3-9.3h30.3
			c5.1,0,9.3,4.2,9.3,9.3s-4.2,9.3-9.3,9.3h-30.3C450.5,308.8,446.3,304.6,446.3,299.5z"/>
		<path class="st4" d="M362.7,63.4H149.3c-4.7,0-8.4,3.8-8.4,8.4v368.3c0,4.6,3.8,8.4,8.4,8.4h213.3c4.7,0,8.4-3.8,8.4-8.4V71.9
			C371.1,67.2,367.3,63.4,362.7,63.4z M222,423.8v7.9h-64.3V395h12.4c3.4,8.4,11.5,14.3,21.1,14.3c9.6,0,17.7-5.9,21.1-14.3h85.3
			c3.4,8.4,11.5,14.3,21.1,14.3c9.6,0,17.7-5.9,21.1-14.3h14.4v36.8H290v-7.9c0-10.6-8.7-19.3-19.3-19.3h-29.3
			C230.7,404.5,222,413.1,222,423.8z M324.6,125.5c0,3.3-2.6,5.9-5.9,5.9c-3.3,0-5.9-2.6-5.9-5.9c0-3.2,2.6-5.9,5.9-5.9
			C322,119.6,324.6,122.2,324.6,125.5z M318.7,102.7c-9.6,0-17.7,5.9-21.1,14.3h-85.3c-3.3-8.4-11.5-14.3-21.1-14.3
			c-9.6,0-17.8,5.9-21.1,14.3h-12.4V80.3H222v7.9c0,10.6,8.7,19.3,19.3,19.3h29.3c10.6,0,19.3-8.7,19.3-19.3v-7.9h64.3v36.8h-14.4
			C336.5,108.7,328.3,102.7,318.7,102.7z M197.2,125.5c0,3.3-2.6,5.9-5.9,5.9c-3.2,0-5.9-2.6-5.9-5.9c0-3.2,2.6-5.9,5.9-5.9
			C194.5,119.6,197.2,122.2,197.2,125.5z M273.1,88.2c0,1.4-1.1,2.5-2.5,2.5h-29.3c-1.4,0-2.5-1.1-2.5-2.5v-7.9h34.2V88.2z
			 M185.4,212.5c0-3.2,2.6-5.9,5.9-5.9c3.3,0,5.9,2.6,5.9,5.9c0,3.3-2.6,5.9-5.9,5.9C188,218.4,185.4,215.7,185.4,212.5z
			 M191.3,235.2c9.6,0,17.8-5.9,21.1-14.3h21.5c3.3,8.4,11.5,14.3,21.1,14.3c9.5,0,17.7-5.9,21.1-14.3h21.5
			c3.4,8.4,11.5,14.3,21.1,14.3c9.6,0,17.7-5.9,21.1-14.3h14.4v70.2h-14.4c-3.4-8.4-11.5-14.3-21.1-14.3c-9.6,0-17.7,5.9-21.1,14.3
			h-21.5c-3.4-8.4-11.5-14.3-21.1-14.3c-9.5,0-17.7,5.9-21.1,14.3h-21.5c-3.4-8.4-11.5-14.3-21.1-14.3c-9.6,0-17.7,5.9-21.1,14.3
			h-12.4v-70.2h12.4C173.5,229.3,181.7,235.2,191.3,235.2z M249.1,212.5c0-3.2,2.6-5.9,5.9-5.9c3.2,0,5.9,2.6,5.9,5.9
			c0,3.3-2.6,5.9-5.9,5.9C251.8,218.4,249.1,215.7,249.1,212.5z M312.8,212.5c0-3.3,2.6-5.9,5.9-5.9c3.2,0,5.9,2.7,5.9,5.9
			c0,3.3-2.6,5.9-5.9,5.9C315.5,218.4,312.8,215.7,312.8,212.5z M324.6,386.5c0,3.3-2.6,5.9-5.9,5.9s-5.9-2.6-5.9-5.9
			c0-3.2,2.6-5.9,5.9-5.9S324.6,383.3,324.6,386.5z M318.7,363.8c-9.6,0-17.7,5.9-21.1,14.3h-85.3c-3.3-8.4-11.5-14.3-21.1-14.3
			s-17.7,5.9-21.1,14.3h-12.4v-70.2h12.4c3.4,8.4,11.5,14.3,21.1,14.3s17.7-5.9,21.1-14.3h21.5c3.3,8.4,11.5,14.3,21.1,14.3
			c9.6,0,17.8-5.9,21.1-14.3h21.5c3.4,8.4,11.5,14.3,21.1,14.3c9.6,0,17.7-5.9,21.1-14.3h14.4v70.2h-14.4
			C336.5,369.7,328.3,363.8,318.7,363.8z M197.2,386.5c0,3.3-2.6,5.9-5.9,5.9c-3.3,0-5.9-2.6-5.9-5.9c0-3.2,2.6-5.9,5.9-5.9
			C194.5,380.6,197.2,383.3,197.2,386.5z M185.4,299.5c0-3.3,2.6-5.9,5.9-5.9c3.2,0,5.9,2.6,5.9,5.9s-2.6,5.9-5.9,5.9
			C188,305.4,185.4,302.8,185.4,299.5z M249.1,299.5c0-3.3,2.6-5.9,5.9-5.9c3.2,0,5.9,2.6,5.9,5.9s-2.6,5.9-5.9,5.9
			C251.8,305.4,249.1,302.8,249.1,299.5z M312.8,299.5c0-3.3,2.6-5.9,5.9-5.9s5.9,2.6,5.9,5.9c0,3.2-2.6,5.9-5.9,5.9
			S312.8,302.8,312.8,299.5z M238.9,423.8c0-1.4,1.1-2.5,2.5-2.5h29.3c1.4,0,2.5,1.1,2.5,2.5v7.9h-34.2V423.8z M354.3,204.1h-14.4
			c-3.3-8.4-11.5-14.3-21.1-14.3c-9.6,0-17.7,5.9-21.1,14.3h-21.5c-3.4-8.4-11.5-14.3-21.1-14.3c-9.6,0-17.7,5.9-21.1,14.3h-21.5
			c-3.4-8.4-11.5-14.3-21.1-14.3c-9.6,0-17.7,5.9-21.1,14.3h-12.4v-70.2h12.4c3.4,8.4,11.5,14.3,21.1,14.3c9.5,0,17.7-5.9,21.1-14.3
			h85.3c3.3,8.4,11.5,14.3,21.1,14.3c9.6,0,17.7-5.9,21.1-14.3h14.4V204.1z"/>
	</g>
</g>
</svg>
